PathFileType	4	(X/Y/Z)	E:\Qualisys_Data\Carbon_Farble_Plate\Data\Amateur_Runner\S1\T3\S1T3V23_c3d.trc
DataRate	CameraRate	NumFrames	NumMarkers	Units	OrigDataRate	OrigDataStartFrame	OrigNumFrames
200.000000	200.000000	4	39	mm	200.000000	148	296
Frame#	Time	LSHO			RSHO			LICST			RICST			LASIS			LHEEL			RASIS			LTROC			RTROC			SACR			LTH1			LSK4			LTH2			LTH3			RHM5			LSK2			LTH4			RTH1			LTOE			RTH2			RTH3			RTH4			LLEP			RLEP			LSK1			LSK3			RSK1			LHM5			RSK2			LFT1			RSK3			RSK4			LLME			RLME			RTOE			RHEEL			RFT1			RFT2			LFT2			
		X1	Y1	Z1	X2	Y2	Z2	X3	Y3	Z3	X4	Y4	Z4	X5	Y5	Z5	X6	Y6	Z6	X7	Y7	Z7	X8	Y8	Z8	X9	Y9	Z9	X10	Y10	Z10	X11	Y11	Z11	X12	Y12	Z12	X13	Y13	Z13	X14	Y14	Z14	X15	Y15	Z15	X16	Y16	Z16	X17	Y17	Z17	X18	Y18	Z18	X19	Y19	Z19	X20	Y20	Z20	X21	Y21	Z21	X22	Y22	Z22	X23	Y23	Z23	X24	Y24	Z24	X25	Y25	Z25	X26	Y26	Z26	X27	Y27	Z27	X28	Y28	Z28	X29	Y29	Z29	X30	Y30	Z30	X31	Y31	Z31	X32	Y32	Z32	X33	Y33	Z33	X34	Y34	Z34	X35	Y35	Z35	X36	Y36	Z36	X37	Y37	Z37	X38	Y38	Z38	X39	Y39	Z39	

149	0.74	90.86756134033205	1513.06884765625	-507.2578430175781	18.37968826293945	1486.549072265625	-195.1674499511719	39.77408218383789	1023.009582519531	-512.08984375	25.32804679870605	1059.017211914062	-216.5429077148438	83.4848861694336	987.2964477539062	-482.4620971679688	-452.0155944824219	498.5487060546875	-381.6985473632812	67.6002426147461	1014.990783691406	-220.2040252685547	-27.24383163452148	903.0299682617188	-530.0941162109375	-29.88003730773926	916.4326782226562	-189.6851501464844	-85.81633758544922	1052.628051757812	-365.7401123046875	87.6086196899414	740.15283203125	-483.4158020019531	-310.3792114257812	507.2667541503906	-413.2306213378906	9.678149223327637	737.32666015625	-515.15185546875	80.73240661621094	636.7345581054688	-466.6796569824219	373.2111206054688	118.0640640258789	-196.8412780761719	-215.4037780761719	517.2318115234375	-453.2812194824219	-1.792342305183411	639.653564453125	-489.4770812988281	134.8830261230469	827.2735595703125	-196.8652496337891	-449.49267578125	247.4110870361328	-359.0772094726562	62.56290817260742	795.9308471679688	-174.6861114501953	174.2784118652344	733.347900390625	-200.7765350341797	98.03219604492188	703.029296875	-188.9917449951172	-3.241795301437378	495.0313110351562	-452.5657043457031	188.6738891601562	558.857666015625	-224.9653625488281	-207.0903778076172	433.2292175292969	-443.5641174316406	-308.3387145996094	429.9248657226562	-435.309814453125	215.8074951171875	367.8874206542969	-198.9400787353516	-480.8778076171875	307.6218566894531	-423.2623901367188	135.4754486083984	356.8071899414062	-208.3644561767578	-473.2076416015625	492.4564514160156	-349.2430419921875	232.6210632324219	269.5765380859375	-210.0911560058594	154.8390350341797	258.9564514160156	-229.4173889160156	-427.2933044433594	442.3244018554688	-426.6000061035156	227.7169494628906	130.3023681640625	-207.0485992431641	414.3427124023438	155.7941284179688	-269.1605224609375	179.7850952148438	68.96360778808594	-250.0240936279297	197.9207153320312	47.80249786376953	-284.2712097167969	191.2029418945312	45.47190093994141	-231.0608520507812	-483.4019165039062	488.3126525878906	-401.8109130859375
150	0.745	110.7672500610352	1508.83642578125	-506.4642333984375	40.14712142944336	1481.128173828125	-194.0199737548828	59.52935791015625	1018.0634765625	-511.4470825195312	44.79396438598633	1055.19873046875	-216.2451171875	103.4629745483398	982.8012084960938	-481.5308532714844	-421.15576171875	504.3330993652344	-382.6508483886719	87.39862823486328	1011.966552734375	-219.6654357910156	-6.486619472503662	897.40869140625	-529.1913452148438	-10.56421279907227	912.5849609375	-189.4020080566406	-65.43743133544922	1047.677001953125	-365.4665832519531	111.5078353881836	736.8474731445312	-484.2323608398438	-278.4179382324219	509.4024353027344	-412.5886535644531	33.51416397094727	732.5882568359375	-515.3414306640625	107.2297592163086	633.3092041015625	-467.9072570800781	382.2962951660156	106.8694229125977	-197.9850311279297	-183.5029449462891	517.6184692382812	-452.4859619140625	24.48396873474121	634.7393188476562	-489.7977294921875	154.0123901367188	824.1220703125	-195.5026397705078	-422.2176818847656	252.8265838623047	-360.3972778320312	81.77898406982422	792.1912841796875	-174.7233581542969	192.6446228027344	729.918701171875	-200.8551788330078	117.9482345581055	699.4366455078125	-189.4544525146484	27.03497314453125	490.386962890625	-453.1496887207031	206.1376953125	553.5194702148438	-224.7257385253906	-177.3341674804688	433.09033203125	-443.7672119140625	-278.3370056152344	432.0722351074219	-435.6910400390625	229.2322998046875	361.5068054199219	-199.1775207519531	-452.6533508300781	314.5030517578125	-424.1480102539062	149.2279510498047	351.6686096191406	-208.1655578613281	-441.9688415527344	498.4056396484375	-348.7002868652344	244.5671691894531	262.5149841308594	-210.5241088867188	166.1283721923828	253.6849365234375	-228.4656982421875	-397.0025939941406	447.9241027832031	-426.4545288085938	237.1736907958984	125.0345916748047	-208.0382232666016	425.0398254394531	141.9260559082031	-270.5735168457031	185.9588775634766	74.90855407714844	-250.6427764892578	201.1903076171875	50.16667938232422	-284.4379272460938	194.9338073730469	49.44897842407227	-231.0292053222656	-451.6432495117188	494.7496948242188	-401.052001953125
151	0.75	130.4605865478516	1504.210083007812	-506.2044067382812	62.08132934570312	1475.626953125	-192.6165313720703	79.32901763916016	1012.958984375	-510.7495422363281	64.16320037841797	1051.189331054688	-215.5449371337891	123.0729827880859	977.95361328125	-480.470458984375	-388.710693359375	509.4857788085938	-380.8836975097656	108.1248397827148	1008.440246582031	-218.7518157958984	14.07329940795898	891.8382568359375	-528.1784057617188	8.317656517028809	908.4155883789062	-189.4255676269531	-45.81896209716797	1042.26318359375	-365.1105041503906	135.6060638427734	733.6123046875	-485.2489013671875	-245.9249572753906	511.2283325195312	-412.393798828125	57.37262725830078	727.7559814453125	-515.4933471679688	133.9262390136719	630.3121337890625	-469.3370971679688	389.4978637695312	92.65159606933594	-199.1553802490234	-151.0512390136719	517.6279907226562	-452.2820739746094	50.55666351318359	629.843994140625	-489.7931823730469	173.5838470458984	820.2376708984375	-194.2055816650391	-394.1482849121094	257.7785034179688	-361.8232116699219	101.5795288085938	787.6600952148438	-173.7681579589844	211.9134368896484	726.314208984375	-200.8704528808594	137.7180786132812	695.4429931640625	-189.7033843994141	57.86626052856445	486.2786560058594	-455.2523193359375	222.6647796630859	547.389892578125	-224.0004119873047	-146.8354034423828	433.52490234375	-444.5190734863281	-247.7092590332031	434.4990844726562	-435.930908203125	242.9662322998047	354.4737854003906	-199.8074188232422	-423.5609436035156	320.4324035644531	-425.0317687988281	161.8519287109375	345.970947265625	-208.7783203125	-410.59716796875	502.0386047363281	-349.9048461914062	256.5855102539062	255.5318298339844	-210.9123229980469	178.7711944580078	249.1160888671875	-230.1733093261719	-365.9920959472656	452.7966613769531	-426.2847900390625	246.1651916503906	119.1605377197266	-208.5489959716797	434.6496276855469	126.6093902587891	-271.8069763183594	192.734130859375	74.29671478271484	-249.0863647460938	204.8639068603516	51.98405838012695	-281.7478332519531	200.8665161132812	47.43019485473633	-230.4557800292969	-419.63232421875	500.111572265625	-400.5008239746094
152	0.755	150.0433654785156	1499.419067382812	-505.7511291503906	84.18990325927734	1469.771606445312	-191.6862640380859	99.55047607421876	1008.029052734375	-510.3191528320312	83.84519958496094	1046.914306640625	-214.6402587890625	143.2044067382812	973.2665405273438	-479.9512023925781	-357.3063659667969	513.8950805664062	-381.6525268554688	126.5513000488281	1002.910339355469	-217.4453735351562	34.64808654785156	886.142333984375	-526.7332153320312	27.68383407592773	904.1890869140624	-189.0978698730469	-25.94049263000488	1037.31982421875	-365.0611267089844	160.0387878417969	730.45947265625	-485.7874450683594	-213.1559295654297	513.1333618164062	-412.2528381347656	81.14236450195312	722.6834716796875	-514.6019897460938	161.10986328125	626.913330078125	-470.7904357910156	396.2417907714844	78.32006072998047	-199.4883880615234	-117.911506652832	517.4298706054688	-452.4074096679688	77.09819793701172	625.1345825195312	-490.1796875	192.8043060302734	815.5415649414062	-193.3687744140625	-365.3717041015625	262.2125854492188	-363.1782531738281	120.6082077026367	782.7333984375	-172.95263671875	231.1166076660156	721.4769897460938	-200.5517272949219	157.0072021484375	690.5606079101562	-188.8697662353516	88.6925048828125	482.7026062011719	-456.0953674316406	238.9456634521484	540.7335205078125	-223.0595397949219	-115.9597244262695	432.8379821777344	-445.3042602539062	-216.5704345703125	436.3408813476562	-436.2249755859375	255.8460693359375	347.4928588867188	-200.1102600097656	-393.7816772460938	325.6825256347656	-426.0175170898438	174.8450164794922	340.3949584960938	-208.8994750976562	-378.0919189453125	506.8561706542969	-348.7612915039062	267.3805847167969	248.3577423095703	-211.3269348144531	189.0004730224609	242.1141510009766	-230.5552368164062	-334.771728515625	457.1128845214844	-426.3434143066406	254.8225250244141	113.6270370483398	-208.5054473876953	443.6211242675781	109.1078186035156	-271.6950073242188	198.48046875	72.1114501953125	-248.3047180175781	209.785888671875	50.69289779663086	-281.0240173339844	204.8627624511719	46.15457534790039	-230.1415252685547	-387.80224609375	506.6660461425781	-400.3995056152344
